<mxfile host="app.diagrams.net" modified="2023-05-16T00:27:19.105Z" agent="Mozilla/5.0 (Windows NT 10.0; Win64; x64; rv:109.0) Gecko/20100101 Firefox/113.0" etag="Scv36M_m-ld_2AawpZ-8" version="21.3.2" type="github">
  <diagram name="Page-1" id="tZlkTWftH07yYiyKr7K9">
    <mxGraphModel dx="954" dy="556" grid="1" gridSize="10" guides="1" tooltips="1" connect="1" arrows="1" fold="1" page="1" pageScale="1" pageWidth="1100" pageHeight="1700" math="0" shadow="0">
      <root>
        <mxCell id="0" />
        <mxCell id="1" parent="0" />
        <mxCell id="XwcD61JwCVb68gWnQBnJ-1" value="Actor" style="shape=umlActor;verticalLabelPosition=bottom;verticalAlign=top;html=1;outlineConnect=0;" parent="1" vertex="1">
          <mxGeometry x="90" y="40" width="30" height="60" as="geometry" />
        </mxCell>
        <mxCell id="XwcD61JwCVb68gWnQBnJ-9" value="Database" style="html=1;whiteSpace=wrap;" parent="1" vertex="1">
          <mxGeometry x="560" y="45" width="110" height="50" as="geometry" />
        </mxCell>
        <mxCell id="XwcD61JwCVb68gWnQBnJ-10" value="Website" style="html=1;whiteSpace=wrap;" parent="1" vertex="1">
          <mxGeometry x="290" y="45" width="110" height="50" as="geometry" />
        </mxCell>
        <mxCell id="XwcD61JwCVb68gWnQBnJ-11" value="Emailserver" style="html=1;whiteSpace=wrap;" parent="1" vertex="1">
          <mxGeometry x="830" y="45" width="110" height="50" as="geometry" />
        </mxCell>
        <mxCell id="XwcD61JwCVb68gWnQBnJ-12" value="" style="endArrow=none;dashed=1;endFill=0;endSize=12;html=1;rounded=0;" parent="1" edge="1">
          <mxGeometry width="160" relative="1" as="geometry">
            <mxPoint x="100" y="120" as="sourcePoint" />
            <mxPoint x="100" y="800" as="targetPoint" />
          </mxGeometry>
        </mxCell>
        <mxCell id="XwcD61JwCVb68gWnQBnJ-13" value="" style="endArrow=none;dashed=1;endFill=0;endSize=12;html=1;rounded=0;" parent="1" source="XwcD61JwCVb68gWnQBnJ-43" edge="1">
          <mxGeometry width="160" relative="1" as="geometry">
            <mxPoint x="344.5" y="95" as="sourcePoint" />
            <mxPoint x="345" y="800" as="targetPoint" />
          </mxGeometry>
        </mxCell>
        <mxCell id="XwcD61JwCVb68gWnQBnJ-14" value="" style="endArrow=none;dashed=1;endFill=0;endSize=12;html=1;rounded=0;" parent="1" edge="1">
          <mxGeometry width="160" relative="1" as="geometry">
            <mxPoint x="614.5" y="95" as="sourcePoint" />
            <mxPoint x="615" y="800" as="targetPoint" />
          </mxGeometry>
        </mxCell>
        <mxCell id="XwcD61JwCVb68gWnQBnJ-15" value="" style="endArrow=none;dashed=1;endFill=0;endSize=12;html=1;rounded=0;" parent="1" edge="1">
          <mxGeometry width="160" relative="1" as="geometry">
            <mxPoint x="884.5" y="95" as="sourcePoint" />
            <mxPoint x="885" y="800" as="targetPoint" />
          </mxGeometry>
        </mxCell>
        <mxCell id="XwcD61JwCVb68gWnQBnJ-16" value="&lt;pre&gt;&lt;code class=&quot;!whitespace-pre hljs language-sql&quot;&gt;Requests to register&lt;/code&gt;&lt;/pre&gt;" style="text;html=1;align=center;verticalAlign=middle;resizable=0;points=[];autosize=1;strokeColor=none;fillColor=none;" parent="1" vertex="1">
          <mxGeometry x="140" y="140" width="160" height="50" as="geometry" />
        </mxCell>
        <mxCell id="XwcD61JwCVb68gWnQBnJ-17" value="&lt;pre&gt;&lt;code class=&quot;!whitespace-pre hljs language-sql&quot;&gt;Displays registration form&lt;/code&gt;&lt;/pre&gt;" style="text;html=1;align=center;verticalAlign=middle;resizable=0;points=[];autosize=1;strokeColor=none;fillColor=none;" parent="1" vertex="1">
          <mxGeometry x="115" y="200" width="210" height="50" as="geometry" />
        </mxCell>
        <mxCell id="XwcD61JwCVb68gWnQBnJ-18" value="&lt;pre&gt;&lt;code class=&quot;!whitespace-pre hljs language-sql&quot;&gt;Fills in registration details&lt;/code&gt;&lt;/pre&gt;" style="text;html=1;align=center;verticalAlign=middle;resizable=0;points=[];autosize=1;strokeColor=none;fillColor=none;" parent="1" vertex="1">
          <mxGeometry x="105" y="260" width="230" height="50" as="geometry" />
        </mxCell>
        <mxCell id="XwcD61JwCVb68gWnQBnJ-19" value="&lt;pre&gt;&lt;code class=&quot;!whitespace-pre hljs language-sql&quot;&gt;Sends verification email to &lt;span class=&quot;hljs-keyword&quot;&gt;user&lt;/span&gt;&lt;/code&gt;&lt;/pre&gt;" style="text;html=1;align=center;verticalAlign=middle;resizable=0;points=[];autosize=1;strokeColor=none;fillColor=none;" parent="1" vertex="1">
          <mxGeometry x="470" y="368" width="250" height="50" as="geometry" />
        </mxCell>
        <mxCell id="XwcD61JwCVb68gWnQBnJ-20" value="&lt;pre&gt;&lt;code class=&quot;!whitespace-pre hljs language-sql&quot;&gt;Sends verification email&lt;/code&gt;&lt;/pre&gt;" style="text;html=1;align=center;verticalAlign=middle;resizable=0;points=[];autosize=1;strokeColor=none;fillColor=none;" parent="1" vertex="1">
          <mxGeometry x="520" y="428" width="190" height="50" as="geometry" />
        </mxCell>
        <mxCell id="XwcD61JwCVb68gWnQBnJ-22" value="&lt;pre&gt;&lt;code class=&quot;!whitespace-pre hljs language-sql&quot;&gt;Enters verification code&lt;/code&gt;&lt;/pre&gt;" style="text;html=1;align=center;verticalAlign=middle;resizable=0;points=[];autosize=1;strokeColor=none;fillColor=none;" parent="1" vertex="1">
          <mxGeometry x="125" y="490" width="190" height="50" as="geometry" />
        </mxCell>
        <mxCell id="XwcD61JwCVb68gWnQBnJ-23" value="&lt;pre&gt;&lt;code class=&quot;!whitespace-pre hljs language-sql&quot;&gt;Saves user registration data&lt;/code&gt;&lt;/pre&gt;" style="text;html=1;align=center;verticalAlign=middle;resizable=0;points=[];autosize=1;strokeColor=none;fillColor=none;" parent="1" vertex="1">
          <mxGeometry x="375" y="600" width="220" height="50" as="geometry" />
        </mxCell>
        <mxCell id="XwcD61JwCVb68gWnQBnJ-24" value="&lt;pre&gt;&lt;code class=&quot;!whitespace-pre hljs language-sql&quot;&gt;Returns success/failure message&lt;/code&gt;&lt;/pre&gt;" style="text;html=1;align=center;verticalAlign=middle;resizable=0;points=[];autosize=1;strokeColor=none;fillColor=none;" parent="1" vertex="1">
          <mxGeometry x="365" y="670" width="240" height="50" as="geometry" />
        </mxCell>
        <mxCell id="XwcD61JwCVb68gWnQBnJ-25" value="&lt;pre&gt;&lt;code class=&quot;!whitespace-pre hljs language-sql&quot;&gt;Sends success/failure message&lt;/code&gt;&lt;/pre&gt;" style="text;html=1;align=center;verticalAlign=middle;resizable=0;points=[];autosize=1;strokeColor=none;fillColor=none;" parent="1" vertex="1">
          <mxGeometry x="105" y="720" width="230" height="50" as="geometry" />
        </mxCell>
        <mxCell id="XwcD61JwCVb68gWnQBnJ-26" value="" style="endArrow=block;endFill=0;endSize=12;html=1;rounded=0;" parent="1" edge="1">
          <mxGeometry width="160" relative="1" as="geometry">
            <mxPoint x="105" y="180" as="sourcePoint" />
            <mxPoint x="340" y="180" as="targetPoint" />
          </mxGeometry>
        </mxCell>
        <mxCell id="XwcD61JwCVb68gWnQBnJ-27" value="" style="endArrow=block;endFill=0;endSize=12;html=1;rounded=0;" parent="1" edge="1">
          <mxGeometry width="160" relative="1" as="geometry">
            <mxPoint x="340" y="240" as="sourcePoint" />
            <mxPoint x="105" y="240" as="targetPoint" />
          </mxGeometry>
        </mxCell>
        <mxCell id="XwcD61JwCVb68gWnQBnJ-28" value="" style="endArrow=block;endFill=0;endSize=12;html=1;rounded=0;" parent="1" edge="1">
          <mxGeometry width="160" relative="1" as="geometry">
            <mxPoint x="105" y="300" as="sourcePoint" />
            <mxPoint x="340" y="300" as="targetPoint" />
          </mxGeometry>
        </mxCell>
        <mxCell id="XwcD61JwCVb68gWnQBnJ-31" value="&lt;pre&gt;&lt;code class=&quot;!whitespace-pre hljs language-sql&quot;&gt;Validates details&lt;/code&gt;&lt;/pre&gt;" style="html=1;align=left;spacingLeft=2;endArrow=block;rounded=0;edgeStyle=orthogonalEdgeStyle;curved=0;rounded=0;" parent="1" edge="1">
          <mxGeometry relative="1" as="geometry">
            <mxPoint x="345" y="330" as="sourcePoint" />
            <Array as="points">
              <mxPoint x="375" y="360" />
            </Array>
            <mxPoint x="350" y="360" as="targetPoint" />
          </mxGeometry>
        </mxCell>
        <mxCell id="XwcD61JwCVb68gWnQBnJ-32" value="" style="endArrow=block;endFill=0;endSize=12;html=1;rounded=0;" parent="1" edge="1">
          <mxGeometry width="160" relative="1" as="geometry">
            <mxPoint x="350" y="408" as="sourcePoint" />
            <mxPoint x="880" y="408" as="targetPoint" />
          </mxGeometry>
        </mxCell>
        <mxCell id="XwcD61JwCVb68gWnQBnJ-33" value="" style="endArrow=block;dashed=1;endFill=0;endSize=12;html=1;rounded=0;" parent="1" source="XwcD61JwCVb68gWnQBnJ-39" edge="1">
          <mxGeometry width="160" relative="1" as="geometry">
            <mxPoint x="875" y="470" as="sourcePoint" />
            <mxPoint x="105" y="470" as="targetPoint" />
          </mxGeometry>
        </mxCell>
        <mxCell id="XwcD61JwCVb68gWnQBnJ-34" value="" style="endArrow=block;endFill=0;endSize=12;html=1;rounded=0;" parent="1" edge="1">
          <mxGeometry width="160" relative="1" as="geometry">
            <mxPoint x="105" y="528" as="sourcePoint" />
            <mxPoint x="340" y="528" as="targetPoint" />
          </mxGeometry>
        </mxCell>
        <mxCell id="XwcD61JwCVb68gWnQBnJ-35" value="" style="endArrow=block;endFill=0;endSize=12;html=1;rounded=0;" parent="1" edge="1">
          <mxGeometry width="160" relative="1" as="geometry">
            <mxPoint x="350" y="642" as="sourcePoint" />
            <mxPoint x="610" y="642" as="targetPoint" />
          </mxGeometry>
        </mxCell>
        <mxCell id="XwcD61JwCVb68gWnQBnJ-36" value="" style="endArrow=block;dashed=1;endFill=0;endSize=12;html=1;rounded=0;" parent="1" edge="1">
          <mxGeometry width="160" relative="1" as="geometry">
            <mxPoint x="610" y="710" as="sourcePoint" />
            <mxPoint x="350" y="710" as="targetPoint" />
          </mxGeometry>
        </mxCell>
        <mxCell id="XwcD61JwCVb68gWnQBnJ-37" value="" style="endArrow=block;dashed=1;endFill=0;endSize=12;html=1;rounded=0;" parent="1" edge="1">
          <mxGeometry width="160" relative="1" as="geometry">
            <mxPoint x="340" y="762" as="sourcePoint" />
            <mxPoint x="105" y="762" as="targetPoint" />
          </mxGeometry>
        </mxCell>
        <mxCell id="XwcD61JwCVb68gWnQBnJ-39" value="" style="html=1;points=[];perimeter=orthogonalPerimeter;outlineConnect=0;targetShapes=umlLifeline;portConstraint=eastwest;newEdgeStyle={&quot;edgeStyle&quot;:&quot;elbowEdgeStyle&quot;,&quot;elbow&quot;:&quot;vertical&quot;,&quot;curved&quot;:0,&quot;rounded&quot;:0};" parent="1" vertex="1">
          <mxGeometry x="880" y="398" width="10" height="80" as="geometry" />
        </mxCell>
        <mxCell id="XwcD61JwCVb68gWnQBnJ-41" value="&lt;pre&gt;&lt;code class=&quot;!whitespace-pre hljs language-sql&quot;&gt;Verifies code&lt;/code&gt;&lt;/pre&gt;" style="html=1;align=left;spacingLeft=2;endArrow=block;rounded=0;edgeStyle=orthogonalEdgeStyle;curved=0;rounded=0;" parent="1" edge="1">
          <mxGeometry relative="1" as="geometry">
            <mxPoint x="345" y="560" as="sourcePoint" />
            <Array as="points">
              <mxPoint x="375" y="590" />
            </Array>
            <mxPoint x="350" y="590" as="targetPoint" />
          </mxGeometry>
        </mxCell>
        <mxCell id="XwcD61JwCVb68gWnQBnJ-44" value="" style="endArrow=none;dashed=1;endFill=0;endSize=12;html=1;rounded=0;" parent="1" target="XwcD61JwCVb68gWnQBnJ-43" edge="1">
          <mxGeometry width="160" relative="1" as="geometry">
            <mxPoint x="344.5" y="95" as="sourcePoint" />
            <mxPoint x="345" y="800" as="targetPoint" />
          </mxGeometry>
        </mxCell>
        <mxCell id="XwcD61JwCVb68gWnQBnJ-43" value="" style="html=1;points=[];perimeter=orthogonalPerimeter;outlineConnect=0;targetShapes=umlLifeline;portConstraint=eastwest;newEdgeStyle={&quot;edgeStyle&quot;:&quot;elbowEdgeStyle&quot;,&quot;elbow&quot;:&quot;vertical&quot;,&quot;curved&quot;:0,&quot;rounded&quot;:0};" parent="1" vertex="1">
          <mxGeometry x="340" y="160" width="10" height="610" as="geometry" />
        </mxCell>
        <mxCell id="XwcD61JwCVb68gWnQBnJ-45" value="" style="html=1;points=[];perimeter=orthogonalPerimeter;outlineConnect=0;targetShapes=umlLifeline;portConstraint=eastwest;newEdgeStyle={&quot;edgeStyle&quot;:&quot;elbowEdgeStyle&quot;,&quot;elbow&quot;:&quot;vertical&quot;,&quot;curved&quot;:0,&quot;rounded&quot;:0};" parent="1" vertex="1">
          <mxGeometry x="610" y="630" width="10" height="90" as="geometry" />
        </mxCell>
        <mxCell id="W_qyRIgnQ3O2IY_0PrKA-1" value="User registration" style="text;html=1;align=center;verticalAlign=middle;resizable=0;points=[];autosize=1;strokeColor=none;fillColor=none;" vertex="1" parent="1">
          <mxGeometry x="425" width="120" height="30" as="geometry" />
        </mxCell>
      </root>
    </mxGraphModel>
  </diagram>
</mxfile>
